<?xml version="1.0" standalone="no"?>
<!DOCTYPE svg PUBLIC "-//W3C//DTD SVG 20010904//EN"
 "http://www.w3.org/TR/2001/REC-SVG-20010904/DTD/svg10.dtd">
<svg version="1.0" xmlns="http://www.w3.org/2000/svg"
 width="260.000000pt" height="260.000000pt" viewBox="0 0 260.000000 260.000000"
 preserveAspectRatio="xMidYMid meet">
<metadata>
Created by potrace 1.14, written by Peter Selinger 2001-2017
</metadata>
<g transform="translate(0.000000,260.000000) scale(0.100000,-0.100000)"
fill="#000000" stroke="none">
<path d="M0 1300 l0 -1300 1300 0 1300 0 0 1300 0 1300 -1300 0 -1300 0 0
-1300z m1357 551 c26 -17 398 -283 725 -520 68 -50 77 -60 78 -88 0 -22 -6
-36 -20 -43 -23 -12 -39 -6 -113 47 -27 19 -51 32 -54 29 -3 -2 -4 -125 -4
-273 1 -262 -5 -328 -31 -345 -7 -4 -285 -8 -618 -8 -532 0 -608 2 -628 16
-22 15 -22 17 -22 309 0 171 -4 296 -9 300 -5 3 -35 -13 -67 -35 -64 -44 -92
-49 -118 -21 -27 30 -13 51 71 111 42 30 95 69 117 85 23 17 154 111 291 210
138 98 270 194 294 212 51 38 64 40 108 14z"/>
<path d="M1235 1704 c-33 -24 -103 -74 -155 -111 -52 -37 -97 -70 -100 -73 -3
-4 -41 -32 -85 -63 -44 -31 -90 -65 -102 -74 -22 -18 -23 -20 -23 -317 -1
-164 1 -300 3 -302 3 -3 836 -6 1072 -4 13 0 15 40 15 298 l0 298 -27 26 c-57
52 -505 368 -521 367 -9 0 -44 -21 -77 -45z m265 -344 c27 -15 34 -59 31 -225
-2 -121 -5 -153 -18 -167 -14 -16 -36 -18 -192 -18 -144 0 -181 3 -199 16 -21
15 -22 21 -22 191 0 150 2 179 17 195 14 16 34 18 190 18 96 0 183 -4 193 -10z"/>
<path d="M1204 1245 c-3 -11 -4 -58 -2 -105 l3 -85 110 0 110 0 0 104 0 103
-108 2 c-100 1 -108 0 -113 -19z"/>
</g>
</svg>
